<svg width="45" height="89" viewBox="0 0 45 89" xmlns="http://www.w3.org/2000/svg" xmlns:xlink="http://www.w3.org/1999/xlink" class="" style="max-width: 45px; min-width: 45px; height: auto;"><g stroke="none" stroke-width="1" fill="none" fill-rule="evenodd"><g transform="translate(-480.000000, -144.000000)"><g transform="translate(480.000000, 135.000000)"><text font-family="Metropolis-Bold, Metropolis" font-size="30" font-weight="bold" fill="#19CEA0"><tspan x="15" y="30">?</tspan></text><g transform="translate(0.000000, 40.000000)" fill="currentColor" fill-rule="nonzero"><path d="M22.4586576,3.58865586e-05 C10.0512108,0.0224655711 0,10.1576244 0,22.6569626 L0,54.2239116 C0,55.9060247 2.01964686,56.748384 3.20085847,55.5590443 L7.50001875,51.1039198 L13.6741556,57.4469893 C14.4065068,58.1843369 15.5936807,58.1843369 16.3259194,57.4469893 L22.4999438,51.1039198 L28.6740806,57.4469893 C29.4063193,58.1843369 30.5934932,58.1843369 31.3257319,57.4469893 L37.4999813,51.1039198 L41.7991415,55.558931 C42.9802406,56.7482707 45,55.9059114 45,54.2237983 L45,22.8510134 C44.9998875,10.3666283 34.8565422,-0.0222805168 22.4586576,3.58865586e-05 Z M13.5,30 C10.4671407,30 8,27.5328593 8,24.5 C8,21.4671407 10.4672507,19 13.5,19 C16.5327493,19 19,21.4672507 19,24.5 C19,27.5327493 16.5328593,30 13.5,30 Z M31.5,30 C28.4671407,30 26,27.5328593 26,24.5 C26,21.4671407 28.4672507,19 31.5,19 C34.5327493,19 37,21.4672507 37,24.5 C37,27.5327493 34.5328593,30 31.5,30 Z"></path></g></g></g></g></svg>